<svg id="Icon_material-contacts" data-name="Icon material-contacts" xmlns="http://www.w3.org/2000/svg" width="35" height="42" viewBox="0 0 35 42">
  <path id="Icon_material-contacts-2" data-name="Icon material-contacts" d="M34.5,0H6.5V3.5h28ZM6.5,42h28V38.5H6.5Zm28-35H6.5A3.51,3.51,0,0,0,3,10.5v21A3.51,3.51,0,0,0,6.5,35h28A3.51,3.51,0,0,0,38,31.5v-21A3.51,3.51,0,0,0,34.5,7Zm-14,4.813a3.938,3.938,0,1,1-3.937,3.937A3.943,3.943,0,0,1,20.5,11.813ZM29.25,29.75H11.75V27.125c0-2.923,5.827-4.375,8.75-4.375s8.75,1.452,8.75,4.375Z" transform="translate(-3)" fill="#373737"/>
</svg>
