<svg id="Icon_ionic-md-help-circle" data-name="Icon ionic-md-help-circle" xmlns="http://www.w3.org/2000/svg" width="35" height="35" viewBox="0 0 35 35">
  <path id="Icon_ionic-md-help-circle-2" data-name="Icon ionic-md-help-circle" d="M20.875,3.375a17.5,17.5,0,1,0,17.5,17.5A17.508,17.508,0,0,0,20.875,3.375Zm1.767,28.017H19.108V27.858h3.534Zm-.017-5.3h-3.5c0-5.637,5.25-5.233,5.25-8.733a3.515,3.515,0,0,0-3.5-3.508,3.551,3.551,0,0,0-3.5,3.492h-3.5a7,7,0,0,1,14,.008C27.875,21.725,22.625,22.221,22.625,26.091Z" transform="translate(-3.375 -3.375)" fill="#373737"/>
</svg>
