<svg id="Icon_awesome-sms" data-name="Icon awesome-sms" xmlns="http://www.w3.org/2000/svg" width="40" height="35" viewBox="0 0 40 35">
  <path id="Icon_awesome-sms-2" data-name="Icon awesome-sms" d="M20,2.25C8.953,2.25,0,9.523,0,18.5A14.423,14.423,0,0,0,4.453,28.711,19.875,19.875,0,0,1,.172,36.2a.621.621,0,0,0-.117.68.612.612,0,0,0,.57.375,17.867,17.867,0,0,0,10.984-4.016A23.826,23.826,0,0,0,20,34.75c11.047,0,20-7.273,20-16.25S31.047,2.25,20,2.25ZM10.016,23.5H9.063a.627.627,0,0,1-.625-.625v-1.25A.627.627,0,0,1,9.063,21h.961c.469,0,.813-.273.813-.516a.413.413,0,0,0-.164-.3L8.961,18.719a2.888,2.888,0,0,1-1.039-2.2,3.176,3.176,0,0,1,3.313-3.016h.953a.627.627,0,0,1,.625.625v1.25a.627.627,0,0,1-.625.625h-.961c-.469,0-.812.273-.812.516a.413.413,0,0,0,.164.3l1.711,1.469a2.888,2.888,0,0,1,1.039,2.2A3.171,3.171,0,0,1,10.016,23.5ZM25,22.875a.627.627,0,0,1-.625.625h-1.25a.627.627,0,0,1-.625-.625V17.547l-1.937,4.359a.624.624,0,0,1-1.117,0L17.5,17.547v5.328a.627.627,0,0,1-.625.625h-1.25A.627.627,0,0,1,15,22.875V14.75a1.254,1.254,0,0,1,1.25-1.25H17.5a1.244,1.244,0,0,1,1.117.687L20,16.953l1.383-2.766A1.253,1.253,0,0,1,22.5,13.5h1.25A1.254,1.254,0,0,1,25,14.75Zm3.773.625h-.961a.627.627,0,0,1-.625-.625v-1.25A.627.627,0,0,1,27.813,21h.961c.469,0,.813-.273.813-.516a.413.413,0,0,0-.164-.3l-1.711-1.469a2.888,2.888,0,0,1-1.039-2.2,3.176,3.176,0,0,1,3.313-3.016h.953a.627.627,0,0,1,.625.625v1.25a.627.627,0,0,1-.625.625h-.961c-.469,0-.812.273-.812.516a.413.413,0,0,0,.164.3l1.711,1.469a2.888,2.888,0,0,1,1.039,2.2A3.164,3.164,0,0,1,28.773,23.5Z" transform="translate(0 -2.25)" fill="#373737"/>
</svg>
